# 3ds Max Wavefront OBJ Exporter v0.97b - (c)2007 guruware
# File Created: 05.06.2019 11:21:33

mtllib Pyramid.mtl

#
# object Pyramid001
#

v  -2.2864 5.1145 -0.4278
v  -2.6517 4.3839 -0.0624
v  -2.5473 4.3839 -0.0624
v  -2.4429 4.3839 -0.0624
v  -2.3386 4.3839 -0.0624
v  -2.2342 4.3839 -0.0624
v  -2.1298 4.3839 -0.0624
v  -2.0254 4.3839 -0.0624
v  -1.9210 4.3839 -0.0624
v  -1.9210 4.3839 -0.1668
v  -1.9210 4.3839 -0.2712
v  -1.9210 4.3839 -0.3756
v  -1.9210 4.3839 -0.4800
v  -1.9210 4.3839 -0.5843
v  -1.9210 4.3839 -0.6887
v  -1.9210 4.3839 -0.7931
v  -2.0254 4.3839 -0.7931
v  -2.1298 4.3839 -0.7931
v  -2.2342 4.3839 -0.7931
v  -2.3386 4.3839 -0.7931
v  -2.4429 4.3839 -0.7931
v  -2.5473 4.3839 -0.7931
v  -2.6517 4.3839 -0.7931
v  -2.6517 4.3839 -0.6887
v  -2.6517 4.3839 -0.5843
v  -2.6517 4.3839 -0.4800
v  -2.6517 4.3839 -0.3756
v  -2.6517 4.3839 -0.2712
v  -2.6517 4.3839 -0.1668
v  -3.0170 3.6532 0.3029
v  -2.8083 3.6532 0.3029
v  -2.5995 3.6532 0.3029
v  -2.3908 3.6532 0.3029
v  -2.1820 3.6532 0.3029
v  -1.9732 3.6532 0.3029
v  -1.7645 3.6532 0.3029
v  -1.5557 3.6532 0.3029
v  -1.5557 3.6532 0.0941
v  -1.5557 3.6532 -0.1146
v  -1.5557 3.6532 -0.3234
v  -1.5557 3.6532 -0.5321
v  -1.5557 3.6532 -0.7409
v  -1.5557 3.6532 -0.9497
v  -1.5557 3.6532 -1.1584
v  -1.7645 3.6532 -1.1584
v  -1.9732 3.6532 -1.1584
v  -2.1820 3.6532 -1.1584
v  -2.3908 3.6532 -1.1584
v  -2.5995 3.6532 -1.1584
v  -2.8083 3.6532 -1.1584
v  -3.0170 3.6532 -1.1584
v  -3.0170 3.6532 -0.9497
v  -3.0170 3.6532 -0.7409
v  -3.0170 3.6532 -0.5321
v  -3.0170 3.6532 -0.3234
v  -3.0170 3.6532 -0.1146
v  -3.0170 3.6532 0.0941
v  -3.3823 2.9226 0.6682
v  -3.0692 2.9226 0.6682
v  -2.7561 2.9226 0.6682
v  -2.4429 2.9226 0.6682
v  -2.1298 2.9226 0.6682
v  -1.8167 2.9226 0.6682
v  -1.5035 2.9226 0.6682
v  -1.1904 2.9226 0.6682
v  -1.1904 2.9226 0.3551
v  -1.1904 2.9226 0.0419
v  -1.1904 2.9226 -0.2712
v  -1.1904 2.9226 -0.5843
v  -1.1904 2.9226 -0.8975
v  -1.1904 2.9226 -1.2106
v  -1.1904 2.9226 -1.5237
v  -1.5035 2.9226 -1.5237
v  -1.8167 2.9226 -1.5237
v  -2.1298 2.9226 -1.5237
v  -2.4429 2.9226 -1.5237
v  -2.7561 2.9226 -1.5237
v  -3.0692 2.9226 -1.5237
v  -3.3823 2.9226 -1.5237
v  -3.3823 2.9226 -1.2106
v  -3.3823 2.9226 -0.8975
v  -3.3823 2.9226 -0.5843
v  -3.3823 2.9226 -0.2712
v  -3.3823 2.9226 0.0419
v  -3.3823 2.9226 0.3551
v  -3.7477 2.1919 1.0335
v  -3.3302 2.1919 1.0335
v  -2.9126 2.1919 1.0335
v  -2.4951 2.1919 1.0335
v  -2.0776 2.1919 1.0335
v  -1.6601 2.1919 1.0335
v  -1.2426 2.1919 1.0335
v  -0.8251 2.1919 1.0335
v  -0.8251 2.1919 0.6160
v  -0.8251 2.1919 0.1985
v  -0.8251 2.1919 -0.2190
v  -0.8251 2.1919 -0.6365
v  -0.8251 2.1919 -1.0540
v  -0.8251 2.1919 -1.4715
v  -0.8251 2.1919 -1.8891
v  -1.2426 2.1919 -1.8891
v  -1.6601 2.1919 -1.8891
v  -2.0776 2.1919 -1.8891
v  -2.4951 2.1919 -1.8891
v  -2.9126 2.1919 -1.8891
v  -3.3302 2.1919 -1.8891
v  -3.7477 2.1919 -1.8891
v  -3.7477 2.1919 -1.4715
v  -3.7477 2.1919 -1.0540
v  -3.7477 2.1919 -0.6365
v  -3.7477 2.1919 -0.2190
v  -3.7477 2.1919 0.1985
v  -3.7477 2.1919 0.6160
v  -4.1130 1.4613 1.3988
v  -3.5911 1.4613 1.3988
v  -3.0692 1.4613 1.3988
v  -2.5473 1.4613 1.3988
v  -2.0254 1.4613 1.3988
v  -1.5035 1.4613 1.3988
v  -0.9816 1.4613 1.3988
v  -0.4598 1.4613 1.3988
v  -0.4598 1.4613 0.8770
v  -0.4598 1.4613 0.3551
v  -0.4598 1.4613 -0.1668
v  -0.4598 1.4613 -0.6887
v  -0.4598 1.4613 -1.2106
v  -0.4598 1.4613 -1.7325
v  -0.4598 1.4613 -2.2544
v  -0.9816 1.4613 -2.2544
v  -1.5035 1.4613 -2.2544
v  -2.0254 1.4613 -2.2544
v  -2.5473 1.4613 -2.2544
v  -3.0692 1.4613 -2.2544
v  -3.5911 1.4613 -2.2544
v  -4.1130 1.4613 -2.2544
v  -4.1130 1.4613 -1.7325
v  -4.1130 1.4613 -1.2106
v  -4.1130 1.4613 -0.6887
v  -4.1130 1.4613 -0.1668
v  -4.1130 1.4613 0.3551
v  -4.1130 1.4613 0.8770
v  -4.4783 0.7306 1.7642
v  -3.8520 0.7306 1.7642
v  -3.2258 0.7306 1.7642
v  -2.5995 0.7306 1.7642
v  -1.9732 0.7306 1.7642
v  -1.3470 0.7306 1.7642
v  -0.7207 0.7306 1.7642
v  -0.0944 0.7306 1.7642
v  -0.0944 0.7306 1.1379
v  -0.0944 0.7306 0.5116
v  -0.0944 0.7306 -0.1146
v  -0.0944 0.7306 -0.7409
v  -0.0944 0.7306 -1.3672
v  -0.0944 0.7306 -1.9934
v  -0.0944 0.7306 -2.6197
v  -0.7207 0.7306 -2.6197
v  -1.3470 0.7306 -2.6197
v  -1.9732 0.7306 -2.6197
v  -2.5995 0.7306 -2.6197
v  -3.2258 0.7306 -2.6197
v  -3.8520 0.7306 -2.6197
v  -4.4783 0.7306 -2.6197
v  -4.4783 0.7306 -1.9934
v  -4.4783 0.7306 -1.3672
v  -4.4783 0.7306 -0.7409
v  -4.4783 0.7306 -0.1146
v  -4.4783 0.7306 0.5116
v  -4.4783 0.7306 1.1379
v  -4.8436 0.0000 2.1295
v  -4.1130 0.0000 2.1295
v  -3.3823 0.0000 2.1295
v  -2.6517 0.0000 2.1295
v  -1.9210 0.0000 2.1295
v  -1.1904 0.0000 2.1295
v  -0.4598 0.0000 2.1295
v  0.2709 0.0000 2.1295
v  0.2709 0.0000 1.3988
v  0.2709 0.0000 0.6682
v  0.2709 0.0000 -0.0624
v  0.2709 0.0000 -0.7931
v  0.2709 0.0000 -1.5237
v  0.2709 0.0000 -2.2544
v  0.2709 0.0000 -2.9850
v  -0.4598 0.0000 -2.9850
v  -1.1904 0.0000 -2.9850
v  -1.9211 0.0000 -2.9850
v  -2.6517 0.0000 -2.9850
v  -3.3823 0.0000 -2.9850
v  -4.1130 0.0000 -2.9850
v  -4.8436 0.0000 -2.9850
v  -4.8436 0.0000 -2.2544
v  -4.8436 0.0000 -1.5237
v  -4.8436 0.0000 -0.7931
v  -4.8436 0.0000 -0.0624
v  -4.8436 0.0000 0.6682
v  -4.8436 0.0000 1.3988
v  -2.2864 0.0000 -0.4278
# 198 vertices

vn 0.0000 0.4472 0.8944
vn 0.8944 0.4472 -0.0000
vn 0.0000 0.4472 -0.8944
vn -0.8944 0.4472 -0.0000
vn 0.0000 -1.0000 -0.0000
# 5 vertex normals

vt 0.5000 1.0000 0.0000
vt 0.4286 0.8571 0.0000
vt 0.4490 0.8571 0.0000
vt 0.4694 0.8571 0.0000
vt 0.4898 0.8571 0.0000
vt 0.5102 0.8571 0.0000
vt 0.5306 0.8571 0.0000
vt 0.5510 0.8571 0.0000
vt 0.5714 0.8571 0.0000
vt 0.3571 0.7143 0.0000
vt 0.3980 0.7143 0.0000
vt 0.4388 0.7143 0.0000
vt 0.4796 0.7143 0.0000
vt 0.5204 0.7143 0.0000
vt 0.5612 0.7143 0.0000
vt 0.6020 0.7143 0.0000
vt 0.6429 0.7143 0.0000
vt 0.2857 0.5714 0.0000
vt 0.3469 0.5714 0.0000
vt 0.4082 0.5714 0.0000
vt 0.4694 0.5714 0.0000
vt 0.5306 0.5714 0.0000
vt 0.5918 0.5714 0.0000
vt 0.6531 0.5714 0.0000
vt 0.7143 0.5714 0.0000
vt 0.2143 0.4286 0.0000
vt 0.2959 0.4286 0.0000
vt 0.3776 0.4286 0.0000
vt 0.4592 0.4286 0.0000
vt 0.5408 0.4286 0.0000
vt 0.6224 0.4286 0.0000
vt 0.7041 0.4286 0.0000
vt 0.7857 0.4286 0.0000
vt 0.1429 0.2857 0.0000
vt 0.2449 0.2857 0.0000
vt 0.3469 0.2857 0.0000
vt 0.4490 0.2857 0.0000
vt 0.5510 0.2857 0.0000
vt 0.6531 0.2857 0.0000
vt 0.7551 0.2857 0.0000
vt 0.8571 0.2857 0.0000
vt 0.0714 0.1429 0.0000
vt 0.1939 0.1429 0.0000
vt 0.3163 0.1429 0.0000
vt 0.4388 0.1429 0.0000
vt 0.5612 0.1429 0.0000
vt 0.6837 0.1429 0.0000
vt 0.8061 0.1429 0.0000
vt 0.9286 0.1429 0.0000
vt 0.0000 0.0000 0.0000
vt 0.1429 0.0000 0.0000
vt 0.2857 0.0000 0.0000
vt 0.4286 0.0000 0.0000
vt 0.5714 0.0000 0.0000
vt 0.7143 0.0000 0.0000
vt 0.8571 0.0000 0.0000
vt 1.0000 0.0000 0.0000
vt 0.0000 1.0000 0.0000
vt 0.5000 0.5000 0.0000
vt 0.1429 1.0000 0.0000
vt 0.2857 1.0000 0.0000
vt 0.4286 1.0000 0.0000
vt 0.5714 1.0000 0.0000
vt 0.7143 1.0000 0.0000
vt 0.8571 1.0000 0.0000
vt 1.0000 1.0000 0.0000
vt 1.0000 0.8571 0.0000
vt 1.0000 0.7143 0.0000
vt 1.0000 0.5714 0.0000
vt 1.0000 0.4286 0.0000
vt 1.0000 0.2857 0.0000
vt 1.0000 0.1429 0.0000
vt 0.0000 0.1429 0.0000
vt 0.0000 0.2857 0.0000
vt 0.0000 0.4286 0.0000
vt 0.0000 0.5714 0.0000
vt 0.0000 0.7143 0.0000
vt 0.0000 0.8571 0.0000
# 78 texture coords

o Pyramid001
g Pyramid001
usemtl wire_225088199
s 4
f 1/1/1 2/2/1 3/3/1 
f 1/1/1 3/3/1 4/4/1 
f 1/1/1 4/4/1 5/5/1 
f 1/1/1 5/5/1 6/6/1 
f 1/1/1 6/6/1 7/7/1 
f 1/1/1 7/7/1 8/8/1 
f 1/1/1 8/8/1 9/9/1 
s 2
f 1/1/2 9/2/2 10/3/2 
f 1/1/2 10/3/2 11/4/2 
f 1/1/2 11/4/2 12/5/2 
f 1/1/2 12/5/2 13/6/2 
f 1/1/2 13/6/2 14/7/2 
f 1/1/2 14/7/2 15/8/2 
f 1/1/2 15/8/2 16/9/2 
s 16
f 1/1/3 16/2/3 17/3/3 
f 1/1/3 17/3/3 18/4/3 
f 1/1/3 18/4/3 19/5/3 
f 1/1/3 19/5/3 20/6/3 
f 1/1/3 20/6/3 21/7/3 
f 1/1/3 21/7/3 22/8/3 
f 1/1/3 22/8/3 23/9/3 
s 32
f 1/1/4 23/2/4 24/3/4 
f 1/1/4 24/3/4 25/4/4 
f 1/1/4 25/4/4 26/5/4 
f 1/1/4 26/5/4 27/6/4 
f 1/1/4 27/6/4 28/7/4 
f 1/1/4 28/7/4 29/8/4 
f 1/1/4 29/8/4 2/9/4 
s 4
f 2/2/1 30/10/1 31/11/1 
f 2/2/1 31/11/1 3/3/1 
f 3/3/1 31/11/1 32/12/1 
f 3/3/1 32/12/1 4/4/1 
f 4/4/1 32/12/1 33/13/1 
f 4/4/1 33/13/1 5/5/1 
f 5/5/1 33/13/1 34/14/1 
f 5/5/1 34/14/1 6/6/1 
f 6/6/1 34/14/1 35/15/1 
f 6/6/1 35/15/1 7/7/1 
f 7/7/1 35/15/1 36/16/1 
f 7/7/1 36/16/1 8/8/1 
f 8/8/1 36/16/1 37/17/1 
f 8/8/1 37/17/1 9/9/1 
s 2
f 9/2/2 37/10/2 38/11/2 
f 9/2/2 38/11/2 10/3/2 
f 10/3/2 38/11/2 39/12/2 
f 10/3/2 39/12/2 11/4/2 
f 11/4/2 39/12/2 40/13/2 
f 11/4/2 40/13/2 12/5/2 
f 12/5/2 40/13/2 41/14/2 
f 12/5/2 41/14/2 13/6/2 
f 13/6/2 41/14/2 42/15/2 
f 13/6/2 42/15/2 14/7/2 
f 14/7/2 42/15/2 43/16/2 
f 14/7/2 43/16/2 15/8/2 
f 15/8/2 43/16/2 44/17/2 
f 15/8/2 44/17/2 16/9/2 
s 16
f 16/2/3 44/10/3 45/11/3 
f 16/2/3 45/11/3 17/3/3 
f 17/3/3 45/11/3 46/12/3 
f 17/3/3 46/12/3 18/4/3 
f 18/4/3 46/12/3 47/13/3 
f 18/4/3 47/13/3 19/5/3 
f 19/5/3 47/13/3 48/14/3 
f 19/5/3 48/14/3 20/6/3 
f 20/6/3 48/14/3 49/15/3 
f 20/6/3 49/15/3 21/7/3 
f 21/7/3 49/15/3 50/16/3 
f 21/7/3 50/16/3 22/8/3 
f 22/8/3 50/16/3 51/17/3 
f 22/8/3 51/17/3 23/9/3 
s 32
f 23/2/4 51/10/4 52/11/4 
f 23/2/4 52/11/4 24/3/4 
f 24/3/4 52/11/4 53/12/4 
f 24/3/4 53/12/4 25/4/4 
f 25/4/4 53/12/4 54/13/4 
f 25/4/4 54/13/4 26/5/4 
f 26/5/4 54/13/4 55/14/4 
f 26/5/4 55/14/4 27/6/4 
f 27/6/4 55/14/4 56/15/4 
f 27/6/4 56/15/4 28/7/4 
f 28/7/4 56/15/4 57/16/4 
f 28/7/4 57/16/4 29/8/4 
f 29/8/4 57/16/4 30/17/4 
f 29/8/4 30/17/4 2/9/4 
s 4
f 30/10/1 58/18/1 59/19/1 
f 30/10/1 59/19/1 31/11/1 
f 31/11/1 59/19/1 60/20/1 
f 31/11/1 60/20/1 32/12/1 
f 32/12/1 60/20/1 61/21/1 
f 32/12/1 61/21/1 33/13/1 
f 33/13/1 61/21/1 62/22/1 
f 33/13/1 62/22/1 34/14/1 
f 34/14/1 62/22/1 63/23/1 
f 34/14/1 63/23/1 35/15/1 
f 35/15/1 63/23/1 64/24/1 
f 35/15/1 64/24/1 36/16/1 
f 36/16/1 64/24/1 65/25/1 
f 36/16/1 65/25/1 37/17/1 
s 2
f 37/10/2 65/18/2 66/19/2 
f 37/10/2 66/19/2 38/11/2 
f 38/11/2 66/19/2 67/20/2 
f 38/11/2 67/20/2 39/12/2 
f 39/12/2 67/20/2 68/21/2 
f 39/12/2 68/21/2 40/13/2 
f 40/13/2 68/21/2 69/22/2 
f 40/13/2 69/22/2 41/14/2 
f 41/14/2 69/22/2 70/23/2 
f 41/14/2 70/23/2 42/15/2 
f 42/15/2 70/23/2 71/24/2 
f 42/15/2 71/24/2 43/16/2 
f 43/16/2 71/24/2 72/25/2 
f 43/16/2 72/25/2 44/17/2 
s 16
f 44/10/3 72/18/3 73/19/3 
f 44/10/3 73/19/3 45/11/3 
f 45/11/3 73/19/3 74/20/3 
f 45/11/3 74/20/3 46/12/3 
f 46/12/3 74/20/3 75/21/3 
f 46/12/3 75/21/3 47/13/3 
f 47/13/3 75/21/3 76/22/3 
f 47/13/3 76/22/3 48/14/3 
f 48/14/3 76/22/3 77/23/3 
f 48/14/3 77/23/3 49/15/3 
f 49/15/3 77/23/3 78/24/3 
f 49/15/3 78/24/3 50/16/3 
f 50/16/3 78/24/3 79/25/3 
f 50/16/3 79/25/3 51/17/3 
s 32
f 51/10/4 79/18/4 80/19/4 
f 51/10/4 80/19/4 52/11/4 
f 52/11/4 80/19/4 81/20/4 
f 52/11/4 81/20/4 53/12/4 
f 53/12/4 81/20/4 82/21/4 
f 53/12/4 82/21/4 54/13/4 
f 54/13/4 82/21/4 83/22/4 
f 54/13/4 83/22/4 55/14/4 
f 55/14/4 83/22/4 84/23/4 
f 55/14/4 84/23/4 56/15/4 
f 56/15/4 84/23/4 85/24/4 
f 56/15/4 85/24/4 57/16/4 
f 57/16/4 85/24/4 58/25/4 
f 57/16/4 58/25/4 30/17/4 
s 4
f 58/18/1 86/26/1 87/27/1 
f 58/18/1 87/27/1 59/19/1 
f 59/19/1 87/27/1 88/28/1 
f 59/19/1 88/28/1 60/20/1 
f 60/20/1 88/28/1 89/29/1 
f 60/20/1 89/29/1 61/21/1 
f 61/21/1 89/29/1 90/30/1 
f 61/21/1 90/30/1 62/22/1 
f 62/22/1 90/30/1 91/31/1 
f 62/22/1 91/31/1 63/23/1 
f 63/23/1 91/31/1 92/32/1 
f 63/23/1 92/32/1 64/24/1 
f 64/24/1 92/32/1 93/33/1 
f 64/24/1 93/33/1 65/25/1 
s 2
f 65/18/2 93/26/2 94/27/2 
f 65/18/2 94/27/2 66/19/2 
f 66/19/2 94/27/2 95/28/2 
f 66/19/2 95/28/2 67/20/2 
f 67/20/2 95/28/2 96/29/2 
f 67/20/2 96/29/2 68/21/2 
f 68/21/2 96/29/2 97/30/2 
f 68/21/2 97/30/2 69/22/2 
f 69/22/2 97/30/2 98/31/2 
f 69/22/2 98/31/2 70/23/2 
f 70/23/2 98/31/2 99/32/2 
f 70/23/2 99/32/2 71/24/2 
f 71/24/2 99/32/2 100/33/2 
f 71/24/2 100/33/2 72/25/2 
s 16
f 72/18/3 100/26/3 101/27/3 
f 72/18/3 101/27/3 73/19/3 
f 73/19/3 101/27/3 102/28/3 
f 73/19/3 102/28/3 74/20/3 
f 74/20/3 102/28/3 103/29/3 
f 74/20/3 103/29/3 75/21/3 
f 75/21/3 103/29/3 104/30/3 
f 75/21/3 104/30/3 76/22/3 
f 76/22/3 104/30/3 105/31/3 
f 76/22/3 105/31/3 77/23/3 
f 77/23/3 105/31/3 106/32/3 
f 77/23/3 106/32/3 78/24/3 
f 78/24/3 106/32/3 107/33/3 
f 78/24/3 107/33/3 79/25/3 
s 32
f 79/18/4 107/26/4 108/27/4 
f 79/18/4 108/27/4 80/19/4 
f 80/19/4 108/27/4 109/28/4 
f 80/19/4 109/28/4 81/20/4 
f 81/20/4 109/28/4 110/29/4 
f 81/20/4 110/29/4 82/21/4 
f 82/21/4 110/29/4 111/30/4 
f 82/21/4 111/30/4 83/22/4 
f 83/22/4 111/30/4 112/31/4 
f 83/22/4 112/31/4 84/23/4 
f 84/23/4 112/31/4 113/32/4 
f 84/23/4 113/32/4 85/24/4 
f 85/24/4 113/32/4 86/33/4 
f 85/24/4 86/33/4 58/25/4 
s 4
f 86/26/1 114/34/1 115/35/1 
f 86/26/1 115/35/1 87/27/1 
f 87/27/1 115/35/1 116/36/1 
f 87/27/1 116/36/1 88/28/1 
f 88/28/1 116/36/1 117/37/1 
f 88/28/1 117/37/1 89/29/1 
f 89/29/1 117/37/1 118/38/1 
f 89/29/1 118/38/1 90/30/1 
f 90/30/1 118/38/1 119/39/1 
f 90/30/1 119/39/1 91/31/1 
f 91/31/1 119/39/1 120/40/1 
f 91/31/1 120/40/1 92/32/1 
f 92/32/1 120/40/1 121/41/1 
f 92/32/1 121/41/1 93/33/1 
s 2
f 93/26/2 121/34/2 122/35/2 
f 93/26/2 122/35/2 94/27/2 
f 94/27/2 122/35/2 123/36/2 
f 94/27/2 123/36/2 95/28/2 
f 95/28/2 123/36/2 124/37/2 
f 95/28/2 124/37/2 96/29/2 
f 96/29/2 124/37/2 125/38/2 
f 96/29/2 125/38/2 97/30/2 
f 97/30/2 125/38/2 126/39/2 
f 97/30/2 126/39/2 98/31/2 
f 98/31/2 126/39/2 127/40/2 
f 98/31/2 127/40/2 99/32/2 
f 99/32/2 127/40/2 128/41/2 
f 99/32/2 128/41/2 100/33/2 
s 16
f 100/26/3 128/34/3 129/35/3 
f 100/26/3 129/35/3 101/27/3 
f 101/27/3 129/35/3 130/36/3 
f 101/27/3 130/36/3 102/28/3 
f 102/28/3 130/36/3 131/37/3 
f 102/28/3 131/37/3 103/29/3 
f 103/29/3 131/37/3 132/38/3 
f 103/29/3 132/38/3 104/30/3 
f 104/30/3 132/38/3 133/39/3 
f 104/30/3 133/39/3 105/31/3 
f 105/31/3 133/39/3 134/40/3 
f 105/31/3 134/40/3 106/32/3 
f 106/32/3 134/40/3 135/41/3 
f 106/32/3 135/41/3 107/33/3 
s 32
f 107/26/4 135/34/4 136/35/4 
f 107/26/4 136/35/4 108/27/4 
f 108/27/4 136/35/4 137/36/4 
f 108/27/4 137/36/4 109/28/4 
f 109/28/4 137/36/4 138/37/4 
f 109/28/4 138/37/4 110/29/4 
f 110/29/4 138/37/4 139/38/4 
f 110/29/4 139/38/4 111/30/4 
f 111/30/4 139/38/4 140/39/4 
f 111/30/4 140/39/4 112/31/4 
f 112/31/4 140/39/4 141/40/4 
f 112/31/4 141/40/4 113/32/4 
f 113/32/4 141/40/4 114/41/4 
f 113/32/4 114/41/4 86/33/4 
s 4
f 114/34/1 142/42/1 143/43/1 
f 114/34/1 143/43/1 115/35/1 
f 115/35/1 143/43/1 144/44/1 
f 115/35/1 144/44/1 116/36/1 
f 116/36/1 144/44/1 145/45/1 
f 116/36/1 145/45/1 117/37/1 
f 117/37/1 145/45/1 146/46/1 
f 117/37/1 146/46/1 118/38/1 
f 118/38/1 146/46/1 147/47/1 
f 118/38/1 147/47/1 119/39/1 
f 119/39/1 147/47/1 148/48/1 
f 119/39/1 148/48/1 120/40/1 
f 120/40/1 148/48/1 149/49/1 
f 120/40/1 149/49/1 121/41/1 
s 2
f 121/34/2 149/42/2 150/43/2 
f 121/34/2 150/43/2 122/35/2 
f 122/35/2 150/43/2 151/44/2 
f 122/35/2 151/44/2 123/36/2 
f 123/36/2 151/44/2 152/45/2 
f 123/36/2 152/45/2 124/37/2 
f 124/37/2 152/45/2 153/46/2 
f 124/37/2 153/46/2 125/38/2 
f 125/38/2 153/46/2 154/47/2 
f 125/38/2 154/47/2 126/39/2 
f 126/39/2 154/47/2 155/48/2 
f 126/39/2 155/48/2 127/40/2 
f 127/40/2 155/48/2 156/49/2 
f 127/40/2 156/49/2 128/41/2 
s 16
f 128/34/3 156/42/3 157/43/3 
f 128/34/3 157/43/3 129/35/3 
f 129/35/3 157/43/3 158/44/3 
f 129/35/3 158/44/3 130/36/3 
f 130/36/3 158/44/3 159/45/3 
f 130/36/3 159/45/3 131/37/3 
f 131/37/3 159/45/3 160/46/3 
f 131/37/3 160/46/3 132/38/3 
f 132/38/3 160/46/3 161/47/3 
f 132/38/3 161/47/3 133/39/3 
f 133/39/3 161/47/3 162/48/3 
f 133/39/3 162/48/3 134/40/3 
f 134/40/3 162/48/3 163/49/3 
f 134/40/3 163/49/3 135/41/3 
s 32
f 135/34/4 163/42/4 164/43/4 
f 135/34/4 164/43/4 136/35/4 
f 136/35/4 164/43/4 165/44/4 
f 136/35/4 165/44/4 137/36/4 
f 137/36/4 165/44/4 166/45/4 
f 137/36/4 166/45/4 138/37/4 
f 138/37/4 166/45/4 167/46/4 
f 138/37/4 167/46/4 139/38/4 
f 139/38/4 167/46/4 168/47/4 
f 139/38/4 168/47/4 140/39/4 
f 140/39/4 168/47/4 169/48/4 
f 140/39/4 169/48/4 141/40/4 
f 141/40/4 169/48/4 142/49/4 
f 141/40/4 142/49/4 114/41/4 
s 4
f 142/42/1 170/50/1 171/51/1 
f 142/42/1 171/51/1 143/43/1 
f 143/43/1 171/51/1 172/52/1 
f 143/43/1 172/52/1 144/44/1 
f 144/44/1 172/52/1 173/53/1 
f 144/44/1 173/53/1 145/45/1 
f 145/45/1 173/53/1 174/54/1 
f 145/45/1 174/54/1 146/46/1 
f 146/46/1 174/54/1 175/55/1 
f 146/46/1 175/55/1 147/47/1 
f 147/47/1 175/55/1 176/56/1 
f 147/47/1 176/56/1 148/48/1 
f 148/48/1 176/56/1 177/57/1 
f 148/48/1 177/57/1 149/49/1 
s 2
f 149/42/2 177/50/2 178/51/2 
f 149/42/2 178/51/2 150/43/2 
f 150/43/2 178/51/2 179/52/2 
f 150/43/2 179/52/2 151/44/2 
f 151/44/2 179/52/2 180/53/2 
f 151/44/2 180/53/2 152/45/2 
f 152/45/2 180/53/2 181/54/2 
f 152/45/2 181/54/2 153/46/2 
f 153/46/2 181/54/2 182/55/2 
f 153/46/2 182/55/2 154/47/2 
f 154/47/2 182/55/2 183/56/2 
f 154/47/2 183/56/2 155/48/2 
f 155/48/2 183/56/2 184/57/2 
f 155/48/2 184/57/2 156/49/2 
s 16
f 156/42/3 184/50/3 185/51/3 
f 156/42/3 185/51/3 157/43/3 
f 157/43/3 185/51/3 186/52/3 
f 157/43/3 186/52/3 158/44/3 
f 158/44/3 186/52/3 187/53/3 
f 158/44/3 187/53/3 159/45/3 
f 159/45/3 187/53/3 188/54/3 
f 159/45/3 188/54/3 160/46/3 
f 160/46/3 188/54/3 189/55/3 
f 160/46/3 189/55/3 161/47/3 
f 161/47/3 189/55/3 190/56/3 
f 161/47/3 190/56/3 162/48/3 
f 162/48/3 190/56/3 191/57/3 
f 162/48/3 191/57/3 163/49/3 
s 32
f 163/42/4 191/50/4 192/51/4 
f 163/42/4 192/51/4 164/43/4 
f 164/43/4 192/51/4 193/52/4 
f 164/43/4 193/52/4 165/44/4 
f 165/44/4 193/52/4 194/53/4 
f 165/44/4 194/53/4 166/45/4 
f 166/45/4 194/53/4 195/54/4 
f 166/45/4 195/54/4 167/46/4 
f 167/46/4 195/54/4 196/55/4 
f 167/46/4 196/55/4 168/47/4 
f 168/47/4 196/55/4 197/56/4 
f 168/47/4 197/56/4 169/48/4 
f 169/48/4 197/56/4 170/57/4 
f 169/48/4 170/57/4 142/49/4 
s 8
f 170/58/5 198/59/5 171/60/5 
f 171/60/5 198/59/5 172/61/5 
f 172/61/5 198/59/5 173/62/5 
f 173/62/5 198/59/5 174/63/5 
f 174/63/5 198/59/5 175/64/5 
f 175/64/5 198/59/5 176/65/5 
f 176/65/5 198/59/5 177/66/5 
f 177/66/5 198/59/5 178/67/5 
f 178/67/5 198/59/5 179/68/5 
f 179/68/5 198/59/5 180/69/5 
f 180/69/5 198/59/5 181/70/5 
f 181/70/5 198/59/5 182/71/5 
f 182/71/5 198/59/5 183/72/5 
f 183/72/5 198/59/5 184/57/5 
f 184/57/5 198/59/5 185/56/5 
f 185/56/5 198/59/5 186/55/5 
f 186/55/5 198/59/5 187/54/5 
f 187/54/5 198/59/5 188/53/5 
f 188/53/5 198/59/5 189/52/5 
f 189/52/5 198/59/5 190/51/5 
f 190/51/5 198/59/5 191/50/5 
f 191/50/5 198/59/5 192/73/5 
f 192/73/5 198/59/5 193/74/5 
f 193/74/5 198/59/5 194/75/5 
f 194/75/5 198/59/5 195/76/5 
f 195/76/5 198/59/5 196/77/5 
f 196/77/5 198/59/5 197/78/5 
f 197/78/5 198/59/5 170/58/5 
# 392 faces

